<?xml version="1.0" encoding="utf-8"?>
<!-- Generator: Adobe Illustrator 21.0.0, SVG Export Plug-In . SVG Version: 6.00 Build 0)  -->
<svg version="1.1" id="Layer_1" xmlns="http://www.w3.org/2000/svg" xmlns:xlink="http://www.w3.org/1999/xlink" x="0px" y="0px"
	 viewBox="0 0 22 22" style="enable-background:new 0 0 22 22;" xml:space="preserve">
<style type="text/css">
	.st0{display:none;}
	.st1{display:inline;fill:none;stroke:#9E9E9E;stroke-width:2.000000e-02;stroke-miterlimit:10;}
	.st2{fill:#FFFFFF;}
</style>
<g id="grid" class="st0">
	<line class="st1" x1="11" y1="0" x2="11" y2="22"/>
	<path class="st1" d="M21.5,11"/>
	<path class="st1" d="M0.4,11"/>
	<line class="st1" x1="0" y1="22" x2="22" y2="0"/>
	<line class="st1" x1="11" y1="0" x2="22" y2="11"/>
	<line class="st1" x1="0" y1="11" x2="11" y2="22"/>
	<line class="st1" x1="22" y1="11" x2="11" y2="22"/>
	<line class="st1" x1="11" y1="0" x2="0" y2="11"/>
	<line class="st1" x1="14.3" y1="0" x2="14.3" y2="22"/>
	<line class="st1" x1="7.7" y1="0" x2="7.7" y2="22"/>
	<line class="st1" x1="3.3" y1="0" x2="3.3" y2="22"/>
	<line class="st1" x1="18.7" y1="0" x2="18.7" y2="22"/>
	<line class="st1" x1="22" y1="11" x2="0" y2="11"/>
	<line class="st1" x1="22" y1="14.3" x2="0" y2="14.3"/>
	<line class="st1" x1="22" y1="7.7" x2="0" y2="7.7"/>
	<line class="st1" x1="22" y1="3.3" x2="0" y2="3.3"/>
	<line class="st1" x1="22" y1="18.7" x2="0" y2="18.7"/>
	<line class="st1" x1="2.2" y1="0" x2="2.2" y2="22"/>
	<line class="st1" x1="19.8" y1="0" x2="19.8" y2="22"/>
	<line class="st1" x1="0" y1="19.8" x2="22" y2="19.8"/>
	<line class="st1" x1="0" y1="2.2" x2="22" y2="2.2"/>
	<line class="st1" x1="17.6" y1="0" x2="17.6" y2="22"/>
	<line class="st1" x1="11" y1="1.6" x2="20.3" y2="11"/>
	<line class="st1" x1="1.6" y1="11" x2="11" y2="20.3"/>
	<line class="st1" x1="20.3" y1="11" x2="11" y2="20.3"/>
	<line class="st1" x1="11" y1="1.6" x2="1.6" y2="11"/>
	<line class="st1" x1="0" y1="0" x2="22" y2="22"/>
	<line class="st1" x1="6.6" y1="0" x2="6.6" y2="22"/>
	<line class="st1" x1="15.4" y1="0" x2="15.4" y2="22"/>
	<line class="st1" x1="0" y1="15.4" x2="22" y2="15.4"/>
	<line class="st1" x1="0" y1="6.6" x2="22" y2="6.6"/>
	<line class="st1" x1="20.9" y1="22" x2="0" y2="1.1"/>
	<line class="st1" x1="1.1" y1="0" x2="22" y2="20.9"/>
	<path class="st1" d="M22,22"/>
	<path class="st1" d="M0,0"/>
	<line class="st1" x1="20.9" y1="22" x2="0" y2="1.1"/>
	<line class="st1" x1="1.1" y1="0" x2="22" y2="20.9"/>
	<line class="st1" x1="0" y1="20.9" x2="20.9" y2="0"/>
	<line class="st1" x1="22" y1="1.1" x2="1.1" y2="22"/>
	<line class="st1" x1="4.4" y1="0" x2="4.4" y2="22"/>
	<line class="st1" x1="22" y1="17.6" x2="0" y2="17.6"/>
	<line class="st1" x1="22" y1="4.4" x2="0" y2="4.4"/>
	<rect x="7.9" y="7.9" transform="matrix(0.7071 -0.7071 0.7071 0.7071 -4.5563 11.0003)" class="st1" width="6.2" height="6.2"/>
	<line class="st1" x1="0" y1="16.5" x2="22" y2="16.5"/>
	<line class="st1" x1="16.5" y1="22" x2="16.5" y2="0"/>
	<line class="st1" x1="5.5" y1="22" x2="5.5" y2="0"/>
	<line class="st1" x1="22" y1="5.5" x2="0" y2="5.5"/>
	<line class="st1" x1="12.1" y1="0" x2="12.1" y2="22"/>
	<line class="st1" x1="13.2" y1="0" x2="13.2" y2="22"/>
	<line class="st1" x1="8.8" y1="22" x2="8.8" y2="0"/>
	<line class="st1" x1="9.9" y1="22" x2="9.9" y2="0"/>
	<line class="st1" x1="0" y1="7.7" x2="22" y2="7.7"/>
	<line class="st1" x1="0" y1="14.3" x2="22" y2="14.3"/>
	<line class="st1" x1="0" y1="9.9" x2="22" y2="9.9"/>
	<line class="st1" x1="0" y1="8.8" x2="22" y2="8.8"/>
	<line class="st1" x1="22" y1="13.2" x2="0" y2="13.2"/>
	<line class="st1" x1="22" y1="12.1" x2="0" y2="12.1"/>
	<line class="st1" x1="1.1" y1="0" x2="1.1" y2="22"/>
	<line class="st1" x1="20.9" y1="0" x2="20.9" y2="22"/>
	<line class="st1" x1="0" y1="1.1" x2="22" y2="1.1"/>
	<line class="st1" x1="0" y1="20.9" x2="22" y2="20.9"/>
</g>
<g>
	<g>
		<path class="st2" d="M9.1,2.9l1.7,1.7c0.6,0.6,1.2,0.8,2,0.8h6.5l-0.1,13.8H2.8V2.9H9.1 M9.3,1.2H2.4c-0.7,0-1.2,0.6-1.2,1.2v17.1
			c0,0.7,0.6,1.2,1.2,1.2h17.1c0.7,0,1.2-0.6,1.2-1.2l0.1-14.7c0-0.7-0.6-1.2-1.2-1.2h-6.9c-0.3,0-0.7-0.1-0.9-0.3l-1.8-1.8
			C9.9,1.3,9.5,1.2,9.3,1.2L9.3,1.2z"/>
	</g>
</g>
<g>
	<path class="st2" d="M2.3,1.2h7c0.3,0,0.6,0.1,0.8,0.3l1.8,1.8c0.2,0.2,0.4,0.3,0.8,0.3h7c0.7,0,1.1,0.4,1.1,1.1v1.4
		c0,0.7-0.6,1.1-1.1,1.1H2.3c-0.7,0-1.1-0.6-1.1-1.1V2.3C1.2,1.8,1.8,1.2,2.3,1.2z"/>
</g>
</svg>
