<?xml version="1.0" encoding="utf-8"?>
<!-- Generator: Adobe Illustrator 21.0.0, SVG Export Plug-In . SVG Version: 6.00 Build 0)  -->
<svg version="1.1" id="Layer_1" xmlns="http://www.w3.org/2000/svg" xmlns:xlink="http://www.w3.org/1999/xlink" x="0px" y="0px"
	 viewBox="0 0 22 22" style="enable-background:new 0 0 22 22;" xml:space="preserve">
<style type="text/css">
	.st0{fill:#434343;}
	.st1{fill:#0A0A0A;}
	.st2{fill:none;}
	.st3{fill:#E0E0E0;}
</style>
<title>edit-circle</title>
<ellipse class="st0" cx="15.5" cy="8.1" rx="0" ry="0.2"/>
<circle class="st1" cx="11" cy="11" r="11"/>
<path class="st2" d="M10.3,5.2c-0.5,0.1-1,0.2-1.5,0.4l1.5,2.6V5.2z"/>
<path class="st2" d="M7.5,6.4C7.1,6.7,6.7,7.1,6.4,7.5L9,9L7.5,6.4z"/>
<path class="st2" d="M5.6,8.8c-0.2,0.5-0.3,1-0.4,1.5h3L5.6,8.8z"/>
<path class="st2" d="M13.3,5.7c-0.5-0.2-1-0.3-1.5-0.4v3L13.3,5.7z"/>
<path class="st2" d="M16.8,10.3c-0.1-0.5-0.2-1-0.4-1.5l-2.6,1.5H16.8z"/>
<path class="st2" d="M15.6,7.6c-0.3-0.4-0.7-0.8-1.1-1.1L13.1,9L15.6,7.6z"/>
<path class="st2" d="M16.3,13.3c0.2-0.5,0.3-1,0.4-1.4h-2.9L16.3,13.3z"/>
<path class="st2" d="M5.3,11.8c0.1,0.5,0.2,1,0.4,1.5l2.6-1.5H5.3z"/>
<path class="st2" d="M11.7,16.8c0.5-0.1,1-0.2,1.4-0.4l-1.4-2.5V16.8z"/>
<path class="st2" d="M8.8,16.4c0.5,0.2,0.9,0.3,1.4,0.4V14L8.8,16.4z"/>
<path class="st2" d="M6.4,14.5c0.3,0.4,0.7,0.8,1.1,1.1L9,13.1L6.4,14.5z"/>
<path class="st2" d="M14.5,15.6c0.4-0.3,0.8-0.6,1.1-1l-2.5-1.5L14.5,15.6z"/>
<g>
	<path class="st3" d="M13.5,5.2l1.6-2.8c-1-0.4-2.2-0.8-3.2-0.9v3.2C12.4,4.7,12.9,5,13.5,5.2z"/>
	<path class="st3" d="M14.9,16l1.6,2.8c0.9-0.6,1.7-1.4,2.4-2.4l-2.8-1.6C15.6,15.4,15.3,15.7,14.9,16z"/>
	<path class="st3" d="M11.8,17.3v3.2c1.1-0.1,2.3-0.3,3.2-0.9l-1.6-2.8C12.9,17,12.4,17.2,11.8,17.3z"/>
	<path class="st3" d="M16,7.3l2.9-1.7c-0.6-1-1.4-1.7-2.4-2.4l-1.6,2.9C15.3,6.5,15.6,6.8,16,7.3z"/>
	<path class="st3" d="M10.2,4.7V1.5C9.2,1.6,8,1.8,7,2.4l1.6,2.8C9.2,5.1,9.7,4.8,10.2,4.7z"/>
	<path class="st3" d="M17.3,10.2h3.2C20.4,9.2,20.2,8,19.6,7l-2.8,1.6C17,9.2,17.2,9.7,17.3,10.2z"/>
	<path class="st3" d="M8.6,16.8L7,19.6c1,0.4,2.1,0.8,3.1,0.9v-3.2C9.6,17.2,9.1,17,8.6,16.8z"/>
	<path class="st3" d="M17.3,12c-0.1,0.5-0.2,1.1-0.4,1.5l2.8,1.6c0.4-1,0.8-2.2,0.9-3.2L17.3,12z"/>
	<path class="st3" d="M5.2,8.6L2.4,7c-0.4,1-0.8,2.2-0.9,3.2h3.2C4.8,9.6,5,9.2,5.2,8.6z"/>
	<path class="st3" d="M4.7,11.9H1.5c0.1,1.1,0.4,2.3,0.9,3.2l2.8-1.6C5,13,4.7,12.4,4.7,11.9z"/>
	<path class="st3" d="M7.2,6L5.5,3.2c-1,0.6-1.7,1.4-2.4,2.4L6,7.2C6.3,6.7,6.7,6.3,7.2,6z"/>
	<path class="st3" d="M6,14.8l-2.8,1.6c0.6,1,1.5,1.7,2.4,2.4L7.2,16C6.7,15.7,6.3,15.3,6,14.8z"/>
</g>
<circle class="st1" cx="11" cy="11" r="8"/>
</svg>
