<svg width="18" height="19" viewBox="0 0 18 19" fill="none" xmlns="http://www.w3.org/2000/svg">
<path d="M14.7392 9.82387L8.61766 4.16184C8.26742 3.8379 7.68877 3.8379 7.33853 4.16184L6.07463 5.33087L7.68877 6.82384C8.06946 6.71116 8.49584 6.78159 8.78516 7.06328C9.08972 7.34497 9.16586 7.73934 9.04403 8.09146L10.5973 9.52809C10.978 9.41541 11.4043 9.48583 11.7089 9.76753C12.1353 10.1478 12.1353 10.7816 11.7089 11.176C11.2825 11.5704 10.6125 11.5704 10.1861 11.176C9.86633 10.8802 9.79019 10.4577 9.9577 10.0915L8.51107 8.75343V12.2746C8.61766 12.3168 8.70903 12.3873 8.80039 12.4577C9.22677 12.8521 9.22677 13.4718 8.80039 13.8662C8.37402 14.2464 7.704 14.2464 7.27762 13.8662C6.85125 13.4718 6.85125 12.8521 7.27762 12.4577C7.38422 12.3591 7.50604 12.2887 7.62786 12.2464V8.68301C7.50604 8.64076 7.38422 8.55625 7.27762 8.47174C6.95784 8.17596 6.8817 7.75342 7.04921 7.38722L5.4503 5.92242L1.26268 9.7957C0.912441 10.1196 0.912441 10.6549 1.26268 10.9788L7.36899 16.6267C7.71922 16.9507 8.29788 16.9507 8.64811 16.6267L14.724 11.007C15.0894 10.6689 15.0894 10.1478 14.7392 9.82387Z" fill="#BDBDBD"/>
<rect x="12" y="3.91888" width="5" height="0.996217" fill="#BDBDBD"/>
<rect x="15" y="1.92645" width="4.98108" height="1" transform="rotate(90 15 1.92645)" fill="#BDBDBD"/>
</svg>
