<?xml version="1.0" encoding="UTF-8"?>
<!DOCTYPE svg PUBLIC "-//W3C//DTD SVG 1.1//EN" "http://www.w3.org/Graphics/SVG/1.1/DTD/svg11.dtd">
<svg version="1.1" xmlns="http://www.w3.org/2000/svg" xmlns:xlink="http://www.w3.org/1999/xlink" x="0" y="0" width="640" height="1024" viewBox="0, 0, 640, 1024">
  <g id="Layer_1">
    <path d="M512,192 C441,192 384,249 384,320 C384,367 410,408 448,430 L448,448 C448,512 384,576 320,576 C267,576 225,587 192,605 L192,302 C230,280 256,239 256,192 C256,121 199,64 128,64 C57,64 0,121 0,192 C0,239 26,280 64,302 L64,721 C26,743 0,784 0,831 C0,902 57,959 128,959 C199,959 256,902 256,831 C256,797 243,767 222,744 C241,721 271,703 320,703 C448,703 576,575 576,447 L576,429 C614,407 640,366 640,319 C640,248 583,191 512,191 z M128,128 C163,128 192,157 192,192 C192,227 163,256 128,256 C93,256 64,227 64,192 C64,157 93,128 128,128 z M128,896 C93,896 64,867 64,832 C64,797 93,768 128,768 C163,768 192,797 192,832 C192,867 163,896 128,896 z M512,384 C477,384 448,355 448,320 C448,285 477,256 512,256 C547,256 576,285 576,320 C576,355 547,384 512,384 z" fill="#FFFFFF"/>
  </g>
</svg>
