<svg width="15" height="12" viewBox="0 0 15 12" fill="none" xmlns="http://www.w3.org/2000/svg">
<path d="M8.66675 0C5.35341 0 2.66675 2.68667 2.66675 6H0.666748L3.26008 8.59333L3.30675 8.68667L6.00008 6H4.00008C4.00008 3.42 6.08675 1.33333 8.66675 1.33333C11.2467 1.33333 13.3334 3.42 13.3334 6C13.3334 8.58 11.2467 10.6667 8.66675 10.6667C7.38008 10.6667 6.21341 10.14 5.37341 9.29333L4.42675 10.24C5.51341 11.3267 7.00675 12 8.66675 12C11.9801 12 14.6667 9.31333 14.6667 6C14.6667 2.68667 11.9801 0 8.66675 0ZM8.00008 3.33333V6.66667L10.8534 8.36L11.3334 7.55333L9.00008 6.16667V3.33333H8.00008Z" fill="#828282"/>
</svg>
