<?xml version="1.0" encoding="utf-8"?>
<!-- Generator: Adobe Illustrator 21.0.0, SVG Export Plug-In . SVG Version: 6.00 Build 0)  -->
<svg version="1.1" id="Layer_1" xmlns="http://www.w3.org/2000/svg" xmlns:xlink="http://www.w3.org/1999/xlink" x="0px" y="0px"
	 viewBox="0 0 22 22" style="enable-background:new 0 0 22 22;" xml:space="preserve">
<style type="text/css">
	.st0{display:none;}
	.st1{display:inline;fill:none;stroke:#9E9E9E;stroke-width:2.000000e-02;stroke-miterlimit:10;}
	.st2{fill:#424242;}
	.st3{clip-path:url(#SVGID_2_);}
	.st4{clip-path:url(#SVGID_4_);fill:#424242;}
	.st5{clip-path:url(#SVGID_6_);}
	.st6{clip-path:url(#SVGID_8_);fill:#424242;}
	.st7{clip-path:url(#SVGID_10_);}
	.st8{clip-path:url(#SVGID_12_);fill:#424242;}
	.st9{clip-path:url(#SVGID_14_);}
	.st10{clip-path:url(#SVGID_16_);fill:#424242;}
</style>
<g class="st0">
	<line class="st1" x1="11" y1="0" x2="11" y2="22"/>
	<path class="st1" d="M21.5,11"/>
	<path class="st1" d="M0.4,11"/>
	<line class="st1" x1="0" y1="22" x2="22" y2="0"/>
	<line class="st1" x1="11" y1="0" x2="22" y2="11"/>
	<line class="st1" x1="0" y1="11" x2="11" y2="22"/>
	<line class="st1" x1="22" y1="11" x2="11" y2="22"/>
	<line class="st1" x1="11" y1="0" x2="0" y2="11"/>
	<line class="st1" x1="14.3" y1="0" x2="14.3" y2="22"/>
	<line class="st1" x1="7.7" y1="0" x2="7.7" y2="22"/>
	<line class="st1" x1="3.3" y1="0" x2="3.3" y2="22"/>
	<line class="st1" x1="18.7" y1="0" x2="18.7" y2="22"/>
	<line class="st1" x1="22" y1="11" x2="0" y2="11"/>
	<line class="st1" x1="22" y1="14.3" x2="0" y2="14.3"/>
	<line class="st1" x1="22" y1="7.7" x2="0" y2="7.7"/>
	<line class="st1" x1="22" y1="3.3" x2="0" y2="3.3"/>
	<line class="st1" x1="22" y1="18.7" x2="0" y2="18.7"/>
	<line class="st1" x1="2.2" y1="0" x2="2.2" y2="22"/>
	<line class="st1" x1="19.8" y1="0" x2="19.8" y2="22"/>
	<line class="st1" x1="0" y1="19.8" x2="22" y2="19.8"/>
	<line class="st1" x1="0" y1="2.2" x2="22" y2="2.2"/>
	<line class="st1" x1="17.6" y1="0" x2="17.6" y2="22"/>
	<line class="st1" x1="11" y1="1.6" x2="20.3" y2="11"/>
	<line class="st1" x1="1.6" y1="11" x2="11" y2="20.3"/>
	<line class="st1" x1="20.3" y1="11" x2="11" y2="20.3"/>
	<line class="st1" x1="11" y1="1.6" x2="1.6" y2="11"/>
	<line class="st1" x1="0" y1="0" x2="22" y2="22"/>
	<line class="st1" x1="6.6" y1="0" x2="6.6" y2="22"/>
	<line class="st1" x1="15.4" y1="0" x2="15.4" y2="22"/>
	<line class="st1" x1="0" y1="15.4" x2="22" y2="15.4"/>
	<line class="st1" x1="0" y1="6.6" x2="22" y2="6.6"/>
	<line class="st1" x1="20.9" y1="22" x2="0" y2="1.1"/>
	<line class="st1" x1="1.1" y1="0" x2="22" y2="20.9"/>
	<path class="st1" d="M22,22"/>
	<path class="st1" d="M0,0"/>
	<line class="st1" x1="0" y1="20.9" x2="20.9" y2="0"/>
	<line class="st1" x1="22" y1="1.1" x2="1.1" y2="22"/>
	<line class="st1" x1="4.4" y1="0" x2="4.4" y2="22"/>
	<line class="st1" x1="22" y1="17.6" x2="0" y2="17.6"/>
	<line class="st1" x1="22" y1="4.4" x2="0" y2="4.4"/>
	<rect x="7.9" y="7.9" transform="matrix(0.7071 -0.7071 0.7071 0.7071 -4.5561 10.9999)" class="st1" width="6.2" height="6.2"/>
	<line class="st1" x1="0" y1="16.5" x2="22" y2="16.5"/>
	<line class="st1" x1="16.5" y1="22" x2="16.5" y2="0"/>
	<line class="st1" x1="5.5" y1="22" x2="5.5" y2="0"/>
	<line class="st1" x1="22" y1="5.5" x2="0" y2="5.5"/>
	<line class="st1" x1="12.1" y1="0" x2="12.1" y2="22"/>
	<line class="st1" x1="13.2" y1="0" x2="13.2" y2="22"/>
	<line class="st1" x1="8.8" y1="22" x2="8.8" y2="0"/>
	<line class="st1" x1="9.9" y1="22" x2="9.9" y2="0"/>
	<line class="st1" x1="0" y1="7.7" x2="22" y2="7.7"/>
	<line class="st1" x1="0" y1="14.3" x2="22" y2="14.3"/>
	<line class="st1" x1="0" y1="9.9" x2="22" y2="9.9"/>
	<line class="st1" x1="0" y1="8.8" x2="22" y2="8.8"/>
	<line class="st1" x1="22" y1="13.2" x2="0" y2="13.2"/>
	<line class="st1" x1="22" y1="12.1" x2="0" y2="12.1"/>
	<line class="st1" x1="1.1" y1="0" x2="1.1" y2="22"/>
	<line class="st1" x1="20.9" y1="0" x2="20.9" y2="22"/>
	<line class="st1" x1="0" y1="1.1" x2="22" y2="1.1"/>
	<line class="st1" x1="0" y1="20.9" x2="22" y2="20.9"/>
</g>
<polygon class="st2" points="8.8,1.1 1.1,1.1 1.1,8.8 4.1,8.8 4.1,4.1 8.8,4.1 "/>
<polygon class="st2" points="20.9,8.8 20.9,1.1 13.2,1.1 13.2,4.1 17.9,4.1 17.9,8.8 "/>
<polygon class="st2" points="13.2,20.9 20.9,20.9 20.9,13.2 17.9,13.2 17.9,17.9 13.2,17.9 "/>
<polygon class="st2" points="1.1,13.2 1.1,20.9 8.8,20.9 8.8,17.9 4.1,17.9 4.1,13.2 "/>
<g>
	<defs>
		<polygon id="SVGID_1_" points="-385.9,-46 -389,-46 -389,-42.9 -387.8,-42.9 -387.8,-44.8 -385.9,-44.8 		"/>
	</defs>
	<clipPath id="SVGID_2_">
		<use xlink:href="#SVGID_1_"  style="overflow:visible;"/>
	</clipPath>
	<g class="st3">
		<defs>
			<rect id="SVGID_3_" x="-707.6" y="-389.5" width="1445" height="803"/>
		</defs>
		<clipPath id="SVGID_4_">
			<use xlink:href="#SVGID_3_"  style="overflow:visible;"/>
		</clipPath>
		<rect x="-394" y="-51" class="st4" width="13.1" height="13.1"/>
	</g>
</g>
<g>
	<defs>
		<polygon id="SVGID_5_" points="-380.7,-42.9 -380.7,-46 -383.8,-46 -383.8,-44.8 -382,-44.8 -382,-42.9 		"/>
	</defs>
	<clipPath id="SVGID_6_">
		<use xlink:href="#SVGID_5_"  style="overflow:visible;"/>
	</clipPath>
	<g class="st5">
		<defs>
			<rect id="SVGID_7_" x="-707.6" y="-389.5" width="1445" height="803"/>
		</defs>
		<clipPath id="SVGID_8_">
			<use xlink:href="#SVGID_7_"  style="overflow:visible;"/>
		</clipPath>
		<rect x="-388.8" y="-51" class="st6" width="13.1" height="13.1"/>
	</g>
</g>
<g>
	<defs>
		<polygon id="SVGID_9_" points="-383.8,-37.8 -380.7,-37.8 -380.7,-40.9 -382,-40.9 -382,-39 -383.8,-39 		"/>
	</defs>
	<clipPath id="SVGID_10_">
		<use xlink:href="#SVGID_9_"  style="overflow:visible;"/>
	</clipPath>
	<g class="st7">
		<defs>
			<rect id="SVGID_11_" x="-707.6" y="-389.5" width="1445" height="803"/>
		</defs>
		<clipPath id="SVGID_12_">
			<use xlink:href="#SVGID_11_"  style="overflow:visible;"/>
		</clipPath>
		<rect x="-388.8" y="-45.9" class="st8" width="13.1" height="13.1"/>
	</g>
</g>
<g>
	<defs>
		<polygon id="SVGID_13_" points="-389,-40.9 -389,-37.8 -385.9,-37.8 -385.9,-39 -387.8,-39 -387.8,-40.9 		"/>
	</defs>
	<clipPath id="SVGID_14_">
		<use xlink:href="#SVGID_13_"  style="overflow:visible;"/>
	</clipPath>
	<g class="st9">
		<defs>
			<rect id="SVGID_15_" x="-707.6" y="-389.5" width="1445" height="803"/>
		</defs>
		<clipPath id="SVGID_16_">
			<use xlink:href="#SVGID_15_"  style="overflow:visible;"/>
		</clipPath>
		<rect x="-394" y="-45.9" class="st10" width="13.1" height="13.1"/>
	</g>
</g>
</svg>
