<svg version="1.1" xmlns="http://www.w3.org/2000/svg" width="16" viewBox="0 0 18 18">
<path class="jp-icon3 jp-icon-selectable" d="M12.499,3.177 C11.205,3.177 10.166,4.216 10.166,5.51 C10.166,6.366 10.64,7.114 11.333,7.515 L11.333,7.843 C11.333,9.009 10.166,10.176 9,10.176 C8.034,10.176 7.269,10.376 6.667,10.704 L6.667,5.182 C7.36,4.781 7.834,4.034 7.834,3.177 C7.834,1.883 6.795,0.844 5.501,0.844 C4.207,0.844 3.168,1.883 3.168,3.177 C3.168,4.034 3.642,4.781 4.334,5.182 L4.334,12.818 C3.642,13.219 3.168,13.966 3.168,14.823 C3.168,16.117 4.207,17.156 5.501,17.156 C6.795,17.156 7.834,16.117 7.834,14.823 C7.834,14.203 7.597,13.656 7.214,13.237 C7.56,12.818 8.107,12.49 9,12.49 C11.333,12.49 13.666,10.157 13.666,7.824 L13.666,7.496 C14.358,7.095 14.832,6.348 14.832,5.492 C14.832,4.198 13.793,3.159 12.499,3.159 z M5.501,2.011 C6.139,2.011 6.667,2.539 6.667,3.177 C6.667,3.815 6.139,4.344 5.501,4.344 C4.863,4.344 4.334,3.815 4.334,3.177 C4.334,2.539 4.863,2.011 5.501,2.011 z M5.501,16.008 C4.863,16.008 4.334,15.479 4.334,14.841 C4.334,14.203 4.863,13.675 5.501,13.675 C6.139,13.675 6.667,14.203 6.667,14.841 C6.667,15.479 6.139,16.008 5.501,16.008 z M12.499,6.676 C11.861,6.676 11.333,6.148 11.333,5.51 C11.333,4.872 11.861,4.344 12.499,4.344 C13.137,4.344 13.666,4.872 13.666,5.51 C13.666,6.148 13.137,6.676 12.499,6.676 z" fill="#4F4F4F"/>
</svg>
