<svg width="16" viewBox="0 0 24 24" fill="none" xmlns="http://www.w3.org/2000/svg">
<g class="jp-icon3" fill="#616161">
<path d="M18.3438 13.2365L10.7648 5.65849C10.3311 5.22492 9.61471 5.22492 9.18108 5.65849L7.61625 7.22311L9.61471 9.2213C10.086 9.07049 10.6139 9.16474 10.9721 9.54176C11.3492 9.91878 11.4435 10.4466 11.2927 10.9179L13.2157 12.8407C13.687 12.6898 14.2149 12.7841 14.592 13.1611C15.1199 13.6701 15.1199 14.5184 14.592 15.0462C14.0641 15.574 13.2345 15.574 12.7067 15.0462C12.3107 14.6503 12.2165 14.0848 12.4239 13.5947L10.6328 11.8039V16.5166C10.7648 16.5731 10.8779 16.6674 10.991 16.7616C11.5189 17.2894 11.5189 18.1189 10.991 18.6467C10.4631 19.1557 9.63356 19.1557 9.10567 18.6467C8.57777 18.1189 8.57777 17.2894 9.10567 16.7616C9.23764 16.6297 9.38847 16.5354 9.53929 16.4789V11.7096C9.38847 11.6531 9.23764 11.5399 9.10567 11.4268C8.70975 11.031 8.61548 10.4654 8.82287 9.97533L6.84326 8.01484L1.65859 13.1988C1.22497 13.6324 1.22497 14.3487 1.65859 14.7823L9.21879 22.3415C9.65241 22.775 10.3688 22.775 10.8025 22.3415L18.325 14.82C18.7774 14.3676 18.7774 13.6701 18.3438 13.2365Z"/>
<rect x="14.6666" y="5.33331" width="6.66667" height="1.33333"/>
<rect x="18.6666" y="2.66669" width="6.66667" height="1.33333" transform="rotate(90 18.6666 2.66669)"/>
</g>
</svg>
