<svg
  xmlns="http://www.w3.org/2000/svg"
  viewBox="0 0 20 20"
  width="16"
>
  <path
    class="jp-icon3 jp-icon-selectable"
    d="M19.6 9.1 10.9 0.4c-0.5-0.5-1.3-0.5-1.8 0l-1.8 1.8 2.3 2.3c0.5-0.2 1.1-0.1 1.6 0.4 0.4 0.4 0.5 1 0.4 1.6l2.2 2.2c0.5-0.2 1.2-0.1 1.6 0.4 0.6 0.6 0.6 1.6 0 2.2-0.6 0.6-1.6 0.6-2.2 0C12.7 10.7 12.6 10.1 12.8 9.5l-2.1-2.1v5.4c0.1 0.1 0.3 0.2 0.4 0.3 0.6 0.6 0.6 1.6 0 2.2-0.6 0.6-1.6 0.6-2.2 0-0.6-0.6-0.6-1.6 0-2.2 0.1-0.1 0.3-0.3 0.5-0.3V7.4C9.3 7.3 9.1 7.2 9 7 8.5 6.6 8.4 5.9 8.6 5.3L6.4 3.1 0.4 9.1c-0.5 0.5-0.5 1.3 0 1.8l8.7 8.7c0.5 0.5 1.3 0.5 1.8 0l8.7-8.7c0.5-0.5 0.5-1.3 0-1.8"
    fill="#616161"
  />
</svg>
