<svg xmlns="http://www.w3.org/2000/svg" viewBox="0 0 24 24" width="16">
  <path class="jp-icon3" fill="#4F4F4F"
    d="M5.59 1.5c-2.041.023-3.607 2.277-2.958 4.202.346 1.087 1.299 1.946 2.404 2.211-.062 2.722-.036 5.448-.02 8.171-2.08.393-3.226 3.07-2.055 4.836.898 1.555 3.134 2.098 4.604 1.033 1.56-1.024 1.945-3.427.656-4.82-.47-.58-.783-.861-1.722-1.102-.004-1.233-.008-3.364-.007-4.596 1.281 1.648 3.342 2.65 5.436 2.555 1.052.03 2.105.015 3.157.011.414 1.848 2.597 3.043 4.361 2.285 1.804-.682 2.655-3.088 1.594-4.725-.99-1.698-3.596-2.12-5-.692-.538.426-.664 1.019-.86 1.63-1.68-.055-4.554.254-6.053-.702-1.39-.825-2.392-2.3-2.576-3.913 1.963-.439 3.092-2.914 2.074-4.669C8.053 2.124 6.81 1.458 5.59 1.5zm.026 1.515c1.26-.18 2.305 1.278 1.736 2.413-.446 1.301-2.442 1.454-3.081.237-.73-1.057.058-2.619 1.345-2.65zm12.501 8.502c1.26-.182 2.301 1.276 1.735 2.41-.445 1.301-2.442 1.455-3.082.238-.727-1.056.062-2.617 1.347-2.648zm-12.5 6c1.26-.183 2.304 1.275 1.735 2.41-.446 1.3-2.44 1.454-3.081.238-.73-1.055.06-2.617 1.345-2.648z" />
</svg>