<svg width="16" height="16" version="1.1" viewBox="0 0 6.35 6.35" xmlns="http://www.w3.org/2000/svg">
  <path class="jp-icon3" transform="scale(.26458)"
    d="m11.939 1.7676a2.1655 2.1655 0 0 0-2.1055 2.1641 2.1655 2.1655 0 0 0 2.166 2.166 2.1655 2.1655 0 0 0 2.166-2.166 2.1655 2.1655 0 0 0-2.166-2.1641 2.1655 2.1655 0 0 0-0.060547 0zm0.060547 7.6172a2.1655 2.1655 0 0 0-2.166 2.166 2.1655 2.1655 0 0 0 2.166 2.166 2.1655 2.1655 0 0 0 2.166-2.166 2.1655 2.1655 0 0 0-2.166-2.166zm0 7.6191a2.1655 2.1655 0 0 0-2.166 2.166 2.1655 2.1655 0 0 0 2.166 2.166 2.1655 2.1655 0 0 0 2.166-2.166 2.1655 2.1655 0 0 0-2.166-2.166z"
    fill="#4F4F4F" />
</svg>