<?xml version="1.0" encoding="utf-8"?>
<!-- Generator: Adobe Illustrator 21.0.0, SVG Export Plug-In . SVG Version: 6.00 Build 0)  -->
<svg version="1.1" id="Layer_1" xmlns="http://www.w3.org/2000/svg" xmlns:xlink="http://www.w3.org/1999/xlink" x="0px" y="0px"
	 viewBox="0 0 22 22" style="enable-background:new 0 0 22 22;" xml:space="preserve">
<style type="text/css">
	.st0{fill:#434343;}
	.st1{fill:#0A0A0A;}
	.st2{fill:none;}
	.st3{fill:#4CAF50;}
</style>
<title>edit-circle-selected</title>
<ellipse class="st0" cx="15.5" cy="8.1" rx="0" ry="0.2"/>
<circle class="st1" cx="11" cy="11" r="11"/>
<path class="st2" d="M10.3,5.2c-0.5,0.1-1,0.2-1.5,0.4l1.5,2.6L10.3,5.2z"/>
<path class="st2" d="M7.5,6.4C7.1,6.7,6.7,7.1,6.4,7.5L9,9L7.5,6.4z"/>
<path class="st2" d="M5.6,8.8c-0.2,0.5-0.3,1-0.4,1.5h3L5.6,8.8z"/>
<path class="st2" d="M13.3,5.7c-0.5-0.2-1-0.3-1.5-0.4v3L13.3,5.7z"/>
<path class="st2" d="M16.8,10.3c-0.1-0.5-0.2-1-0.4-1.5l-2.6,1.5L16.8,10.3z"/>
<path class="st2" d="M15.6,7.6c-0.3-0.4-0.7-0.8-1.1-1.1L13.1,9L15.6,7.6z"/>
<path class="st2" d="M16.3,13.3c0.2-0.5,0.3-1,0.4-1.4h-2.9L16.3,13.3z"/>
<path class="st2" d="M5.3,11.8c0.1,0.5,0.2,1,0.4,1.5l2.6-1.5L5.3,11.8z"/>
<path class="st2" d="M11.7,16.8c0.5-0.1,1-0.2,1.4-0.4l-1.4-2.5L11.7,16.8z"/>
<path class="st2" d="M8.8,16.4c0.5,0.2,0.9,0.3,1.4,0.4v-2.8L8.8,16.4z"/>
<path class="st2" d="M6.4,14.5c0.3,0.4,0.7,0.8,1.1,1.1L9,13.1L6.4,14.5z"/>
<path class="st2" d="M14.5,15.6c0.4-0.3,0.8-0.6,1.1-1l-2.5-1.5L14.5,15.6z"/>
<path class="st3" d="M13.3,5.7l1.5-2.6c-0.9-0.4-2-0.7-3-0.8v3C12.3,5.3,12.8,5.5,13.3,5.7z"/>
<path class="st3" d="M14.5,15.6l1.5,2.6c0.8-0.6,1.6-1.3,2.2-2.2l-2.6-1.5C15.2,15,14.9,15.3,14.5,15.6z"/>
<path class="st3" d="M11.7,16.8v3c1-0.1,2.1-0.3,3-0.8l-1.5-2.6C12.8,16.6,12.3,16.7,11.7,16.8z"/>
<path class="st3" d="M15.6,7.6L18.3,6c-0.6-0.9-1.3-1.6-2.2-2.2l-1.5,2.7C15,6.8,15.3,7.1,15.6,7.6z"/>
<path class="st3" d="M10.3,5.2v-3c-1,0.1-2.1,0.3-3,0.8l1.5,2.6C9.3,5.5,9.8,5.3,10.3,5.2z"/>
<path class="st3" d="M16.8,10.3h3c-0.1-1-0.3-2.1-0.8-3l-2.6,1.5C16.6,9.3,16.7,9.8,16.8,10.3z"/>
<path class="st3" d="M8.8,16.4L7.3,19c0.9,0.4,1.9,0.7,2.9,0.8v-3C9.7,16.7,9.2,16.6,8.8,16.4z"/>
<path class="st3" d="M16.7,11.8c-0.1,0.5-0.2,1-0.4,1.4l2.6,1.5c0.4-0.9,0.7-2,0.8-3L16.7,11.8z"/>
<path class="st3" d="M5.6,8.8L3,7.3c-0.4,0.9-0.7,2-0.8,3h3C5.3,9.7,5.4,9.3,5.6,8.8z"/>
<path class="st3" d="M5.3,11.8h-3c0.1,1,0.4,2.1,0.8,3l2.6-1.5C5.5,12.8,5.3,12.3,5.3,11.8z"/>
<path class="st3" d="M7.5,6.4L6,3.8C5.1,4.4,4.4,5.1,3.8,6l2.6,1.5C6.7,7.1,7.1,6.7,7.5,6.4z"/>
<path class="st3" d="M6.4,14.5L3.8,16c0.6,0.9,1.4,1.6,2.2,2.2l1.5-2.6C7.1,15.3,6.7,14.9,6.4,14.5z"/>
<circle class="st1" cx="11" cy="11" r="6.9"/>
</svg>
