<svg id="Layer_1" data-name="Layer 1" xmlns="http://www.w3.org/2000/svg" width="22" height="22" viewBox="0 0 22 22"><title>edit-circle</title><ellipse cx="15.5" cy="8.1" ry="0.2" style="fill:#434343"/><circle cx="11" cy="11" r="11" style="fill:#434343"/><path d="M10.28,5.25a5.75,5.75,0,0,0-1.48.39l1.47,2.57Z" style="fill:none"/><path d="M7.49,6.39a5.83,5.83,0,0,0-1.1,1.1L9,9Z" style="fill:none"/><path d="M5.64,8.78a5.76,5.76,0,0,0-.39,1.49h3Z" style="fill:none"/><path d="M13.29,5.67a5.76,5.76,0,0,0-1.49-.41v3Z" style="fill:none"/><path d="M16.76,10.33a5.75,5.75,0,0,0-.37-1.48l-2.56,1.46Z" style="fill:none"/><path d="M15.65,7.55a5.83,5.83,0,0,0-1.07-1.1L13.08,9Z" style="fill:none"/><path d="M16.33,13.28a5.75,5.75,0,0,0,.4-1.45H13.82Z" style="fill:none"/><path d="M5.26,11.77a5.76,5.76,0,0,0,.4,1.48l2.56-1.46Z" style="fill:none"/><path d="M11.74,16.75a5.75,5.75,0,0,0,1.45-.38l-1.43-2.51Z" style="fill:none"/><path d="M8.79,16.36a5.75,5.75,0,0,0,1.43.38V13.89Z" style="fill:none"/><path d="M6.42,14.54a5.83,5.83,0,0,0,1.07,1.07L9,13.09Z" style="fill:none"/><path d="M14.49,15.62a5.84,5.84,0,0,0,1.07-1l-2.5-1.46Z" style="fill:none"/><path d="M13.29,5.67l1.52-2.61a8.79,8.79,0,0,0-3-.82v3A5.76,5.76,0,0,1,13.29,5.67Z" style="fill:#e0e0e0"/><path d="M14.49,15.62,16,18.26a8.72,8.72,0,0,0,2.18-2.16l-2.62-1.53A5.84,5.84,0,0,1,14.49,15.62Z" style="fill:#e0e0e0"/><path d="M11.74,16.75v3a8.8,8.8,0,0,0,3-.77l-1.5-2.63A5.75,5.75,0,0,1,11.74,16.75Z" style="fill:#e0e0e0"/><path d="M15.65,7.55,18.29,6a8.72,8.72,0,0,0-2.18-2.22L14.58,6.44A5.83,5.83,0,0,1,15.65,7.55Z" style="fill:#e0e0e0"/><path d="M10.28,5.25v-3a8.8,8.8,0,0,0-3,.78l1.5,2.63A5.75,5.75,0,0,1,10.28,5.25Z" style="fill:#e0e0e0"/><path d="M16.76,10.33h3a8.81,8.81,0,0,0-.75-3l-2.63,1.5A5.75,5.75,0,0,1,16.76,10.33Z" style="fill:#e0e0e0"/><path d="M8.79,16.36,7.27,19a8.8,8.8,0,0,0,2.94.79v-3A5.75,5.75,0,0,1,8.79,16.36Z" style="fill:#e0e0e0"/><path d="M16.73,11.83a5.75,5.75,0,0,1-.4,1.45l2.61,1.52a8.79,8.79,0,0,0,.82-3Z" style="fill:#e0e0e0"/><path d="M5.64,8.78,3,7.26a8.8,8.8,0,0,0-.79,3h3A5.76,5.76,0,0,1,5.64,8.78Z" style="fill:#e0e0e0"/><path d="M5.26,11.77h-3a8.8,8.8,0,0,0,.8,3l2.62-1.5A5.76,5.76,0,0,1,5.26,11.77Z" style="fill:#e0e0e0"/><path d="M7.49,6.39,6,3.75A8.72,8.72,0,0,0,3.77,6L6.4,7.48A5.83,5.83,0,0,1,7.49,6.39Z" style="fill:#e0e0e0"/><path d="M6.42,14.54,3.78,16.05A8.72,8.72,0,0,0,6,18.23l1.53-2.62A5.83,5.83,0,0,1,6.42,14.54Z" style="fill:#e0e0e0"/><circle cx="11" cy="11" r="6.85" style="fill:#434343"/></svg>